HIERARCHY
ROOT hip
{
	OFFSET 0.000000 0.000000 0.000000 
	CHANNELS 6 Xposition Yposition Zposition Xrotation Zrotation Yrotation
	JOINT abdomen
	{
		OFFSET 0.000000 3.402643 0.000000 
		CHANNELS 3 Xrotation Zrotation Yrotation
		JOINT chest
		{
			OFFSET 0.000000 8.438565 -0.680529 
			CHANNELS 3 Xrotation Zrotation Yrotation
			JOINT neck
			{
				OFFSET 0.000000 10.207942 -0.272212 
				CHANNELS 3 Xrotation Zrotation Yrotation
				JOINT head
				{
					OFFSET 0.000000 3.130431 0.000000 
					CHANNELS 3 Xrotation Zrotation Yrotation
					End Site
					{
						OFFSET 0.000000 3.130435 0.000000 
					}
				}
			}
			JOINT lCollar
			{
				OFFSET 3.470700 6.669187 -0.816635 
				CHANNELS 3 Yrotation Zrotation Xrotation
				JOINT lShldr
				{
					OFFSET 3.198488 0.000000 0.000000 
					CHANNELS 3 Zrotation Yrotation Xrotation
					JOINT lForeArm
					{
						OFFSET 10.139888 0.000000 0.000000 
						CHANNELS 3 Yrotation Zrotation Xrotation
						JOINT lHand
						{
							OFFSET 8.370511 0.000000 0.000000 
							CHANNELS 3 Zrotation Yrotation Xrotation
							End Site
							{
								OFFSET 4.083176 0.000000 0.000000 
							}
						}
					}
				}
			}
			JOINT rCollar
			{
				OFFSET -3.470700 6.669187 -0.816635 
				CHANNELS 3 Yrotation Zrotation Xrotation
				JOINT rShldr
				{
					OFFSET -3.198488 0.000000 0.000000 
					CHANNELS 3 Zrotation Yrotation Xrotation
					JOINT rForeArm
					{
						OFFSET -10.139888 0.000000 0.000000 
						CHANNELS 3 Yrotation Zrotation Xrotation
						JOINT rHand
						{
							OFFSET -8.370511 0.000000 0.000000 
							CHANNELS 3 Zrotation Yrotation Xrotation
							End Site
							{
								OFFSET -4.083176 0.000000 0.000000 
							}
						}
					}
				}
			}
		}
	}
	JOINT lThigh
	{
		OFFSET 5.308129 -1.633274 1.361059 
		CHANNELS 3 Xrotation Zrotation Yrotation
		JOINT lShin
		{
			OFFSET -2.041588 -20.007561 0.000000 
			CHANNELS 3 Xrotation Zrotation Yrotation
			JOINT lFoot
			{
				OFFSET 0.000000 -19.190928 -1.224953 
				CHANNELS 3 Xrotation Yrotation Zrotation
				End Site
				{
					OFFSET 0.000000 -2.449906 4.627600 
				}
			}
		}
	}
	JOINT rThigh
	{
		OFFSET -5.308129 -1.633274 1.361059 
		CHANNELS 3 Xrotation Zrotation Yrotation
		JOINT rShin
		{
			OFFSET 2.041588 -20.007561 0.000000 
			CHANNELS 3 Xrotation Zrotation Yrotation
			JOINT rFoot
			{
				OFFSET 0.000000 -19.190928 -1.224953 
				CHANNELS 3 Xrotation Yrotation Zrotation
				End Site
				{
					OFFSET 0.000000 -2.449906 4.627600 
				}
			}
		}
	}
}
MOTION
Frames: 13
Frame Time: 0.033333
-18.282589 33.494228 111.300133 4.589844 -3.857421 -95.068359 39.857224 -4.823293 -2.527657 -12.622190 0.890263 -1.764404 7.164140 6.365036 5.581256 -2.155671 4.344300 3.848799 -9.536379 -8.079559 -0.008697 -39.297485 8.475361 -57.704636 -118.890236 -4.501250 -62.576801 18.051243 -16.239283 -5.218485 23.103092 2.633702 0.001097 58.699070 -18.572834 -0.348571 103.809753 3.525043 -43.998962 9.758319 0.901254 0.154125 -58.417439 31.803864 -15.743689 91.444389 2.699124 -4.170619 -14.550495 -3.571916 -13.216892 -50.255558 -33.442924 4.795800 85.380112 -2.294917 4.196394 -14.283547 7.173388 14.171207 
-18.053282 34.029182 111.319107 3.837891 -1.748047 -89.824219 39.117035 -3.607671 -2.705728 -13.293509 0.583213 -2.291317 3.366756 7.597753 8.384843 -4.669271 2.150122 7.331525 -10.792530 -8.856928 -0.011038 -51.039974 11.249213 -45.303741 -131.471710 -4.177966 -54.764317 25.007772 -28.514278 -12.562346 23.140905 5.384577 -0.002776 58.505112 -22.731001 -0.961002 109.920685 3.550708 -44.165054 9.152839 -3.321362 -0.541292 -61.415325 28.816038 -15.597011 88.422058 2.485888 -4.192455 -13.174017 -6.707797 -13.891567 -48.972065 -32.928345 5.202357 84.775810 -2.264965 4.183850 -14.782857 -0.833764 12.004379 
-18.276215 34.587696 110.763496 1.337891 -1.386719 -79.355469 38.537773 -3.602500 -3.602416 -13.982620 1.604443 -2.993560 1.513316 6.711620 10.407307 -5.251801 -1.475276 10.088582 -11.066154 -8.019964 -0.005979 -57.946438 9.060098 -38.022606 -144.199463 -4.211401 -54.968655 28.947079 -28.978292 -15.016231 21.673008 6.673458 -0.004558 62.059483 -27.373501 -4.684225 114.175232 3.480235 -43.074375 9.071806 -8.107821 -1.296257 -62.387352 21.874367 -15.537953 83.967613 2.169011 -4.203472 -10.030986 -11.380766 -14.357012 -42.680351 -35.884926 2.873137 85.438683 -2.294888 4.198274 -18.005150 -9.130182 9.114124 
-19.566984 35.264114 109.558510 -0.195313 -3.701171 -64.541016 38.017555 -2.371625 -3.197353 -13.683412 2.123815 -3.032130 0.263727 9.781449 11.266168 -3.552626 -8.543634 12.418946 -10.517107 -5.054542 -0.006227 -59.177120 0.823436 -42.277386 -148.825470 -4.459142 -60.333122 30.437891 -18.732481 -10.696636 19.557775 7.815417 -0.004393 65.660545 -30.720505 -10.242876 116.426842 3.698678 -46.308525 5.572206 -12.135773 -1.184385 -61.041142 14.794943 -18.476709 78.636482 1.796524 -4.193611 -7.271831 -18.287197 -14.690076 -25.944937 -36.743759 -7.862741 84.999054 -2.294936 4.193956 -22.033627 -16.901155 5.185563 
-21.488306 36.434341 108.373871 -1.845703 -6.005859 -49.532272 34.668591 -2.819214 -1.335445 -3.441514 3.589646 -1.300081 -9.895854 11.705792 12.503910 -0.423060 -13.178934 15.402435 -9.396272 -10.462847 -0.007819 -48.912441 -17.484982 -37.158806 -139.701859 -1.741246 -19.059114 31.399712 1.612004 0.976143 18.383144 9.933186 -0.008123 57.488888 -24.182716 -14.641651 121.307961 3.745031 -46.900055 -5.435563 -15.031096 1.408573 -57.909424 9.472714 -21.773283 71.650230 1.289177 -4.133672 -3.660212 -25.924080 -14.007820 -7.003219 -30.792095 -19.730894 79.952011 -1.919060 4.170926 -27.128994 -22.669664 0.524341 
-23.615662 38.005680 107.371712 -3.925781 -6.367188 -33.828121 34.538353 -4.827389 0.558996 -5.549175 3.860011 1.454952 -8.813921 11.874845 14.996610 0.699253 -16.102066 18.071529 -8.654017 -12.418509 -0.002782 -48.463451 -29.468670 -23.568182 -134.818283 0.005847 1.208701 28.086111 12.027225 6.338751 16.257483 6.185847 0.000064 46.573025 -26.155361 -9.203765 124.694855 2.787589 -32.531349 -8.642920 0.332992 -0.057927 -54.183773 4.474557 -24.143509 62.237797 0.624517 -3.954601 1.099198 -32.219120 -11.783603 7.668655 -20.295782 -28.483814 70.725311 -1.254373 4.072795 -31.747511 -25.972879 -3.580590 
-25.542669 39.542236 106.314407 -4.873047 -4.589844 -18.789845 37.043995 -5.015596 2.383671 -14.527641 -7.305080 3.895702 -3.403596 18.474390 16.444975 5.103527 -12.708879 18.818628 -9.867807 -4.103555 -0.000986 -56.144611 -32.575592 -13.912759 -130.621429 -0.016815 0.867384 29.370909 14.915755 8.238712 16.531261 4.155630 -0.002956 34.278690 -30.618423 -7.986495 127.716042 3.306734 -39.806126 0.488613 1.943276 0.010091 -51.264393 1.144175 -23.347832 50.852989 -0.080505 -3.574978 7.630400 -31.301620 -8.417445 14.448402 -9.530663 -32.154755 61.916988 -0.658008 3.882977 -32.590000 -26.161625 -4.166484 
-26.764853 40.662445 105.311691 -3.837891 -1.914063 -8.096029 38.468792 -3.388424 5.685275 -15.324719 -19.291952 7.177955 -2.526100 17.328573 19.260838 9.497663 -3.134606 20.617989 -11.735575 -1.275510 -0.005528 -56.337883 -36.011215 -2.549992 -125.508049 0.663602 8.628031 23.913260 19.282684 8.329686 16.440800 1.384368 -0.001417 13.023411 -25.990875 -11.403757 119.909256 3.210618 -38.643276 14.177999 1.972913 0.502208 -50.163494 -0.263197 -21.484579 41.889870 -0.595841 -3.174144 15.246357 -29.247351 -4.873837 14.325796 -3.868065 -31.045132 57.882191 -0.379678 3.784001 -30.569414 -22.620045 -1.077078 
-27.599083 41.165813 104.458473 -2.861328 0.322266 -1.757813 39.441887 -1.149326 8.744767 -14.577194 -29.385817 9.675190 5.766015 20.283667 21.643597 5.582068 -6.366139 21.947361 -16.304667 4.264171 -0.002500 -57.260807 -33.794029 7.641965 -126.384918 0.580945 7.713735 17.380264 19.953207 6.096731 20.533001 -1.189832 -0.002626 -6.615215 -18.632656 -11.286840 87.136887 1.078310 -12.385990 13.431463 4.860992 1.164000 -51.044468 -0.497917 -20.457962 39.898907 -0.693363 -3.082032 24.282215 -34.422745 1.806286 12.474109 -3.027961 -27.897038 57.550976 -0.349878 3.775387 -29.946354 -17.888496 1.876125 
-28.475855 41.597683 104.019112 -1.640625 1.650399 2.402613 39.125973 -1.954517 9.789806 -13.083372 -31.173973 10.779676 8.118937 26.503584 22.239080 5.987858 -7.329308 22.222898 -18.769220 5.746309 -0.001974 -60.045429 -35.172329 20.211092 -127.776627 0.929539 11.780383 22.992565 20.266401 8.362318 22.436615 -2.176180 0.001076 -13.269016 -1.295513 -16.646271 47.736229 -1.484349 16.188524 12.814805 26.295935 5.761699 -50.967854 1.515912 -17.596800 39.078991 -0.726301 -3.043206 25.494297 -33.685841 2.276728 11.017401 -3.514722 -25.150270 55.864834 -0.264777 3.705547 -30.292463 -16.804575 2.392733 
-29.514313 41.765892 104.081894 -0.878906 1.503906 7.783203 39.151588 -1.761161 8.673603 -13.487056 -31.625681 9.877015 4.854450 27.734440 20.361355 6.424901 -1.758940 21.113543 -15.717254 7.572087 -0.008795 -63.709820 -38.635345 28.853642 -128.383286 1.322857 16.405626 22.936180 18.002155 7.446726 24.527220 -1.096737 -0.003940 -4.996101 1.803442 -29.717453 40.074318 -2.399730 27.344604 12.670577 27.913254 6.015861 -49.032627 3.751040 -11.326832 34.520130 -0.950301 -2.789908 26.273056 -38.335735 4.543388 11.434562 -3.008022 -25.476053 53.837662 -0.124677 3.635320 -29.927723 -16.562836 2.664443 
-30.350348 41.423798 104.305099 -1.435547 0.820313 14.814591 38.536762 -2.522779 7.707160 -12.123665 -28.491888 8.845639 -0.821247 29.725510 13.561283 6.585624 -1.181421 16.211069 -19.067867 5.178574 -0.003980 -60.929688 -41.597946 26.556997 -127.339317 0.904074 11.426485 19.241428 20.130711 6.844604 24.036945 2.212068 -0.003481 -4.237878 2.171901 -39.083191 36.388474 -2.634613 30.229578 12.201983 28.057619 5.812123 -48.008766 1.914976 -8.197559 33.094025 -1.025308 -2.710388 25.374216 -40.216476 4.585498 12.643728 -2.422562 -27.084814 54.967831 -0.193140 3.691515 -28.851887 -15.781519 3.467297 
-30.684956 40.859749 104.319649 -2.841797 0.009766 17.597658 38.244492 -2.607708 6.476439 -12.006852 -25.932432 7.610902 -3.839964 26.746265 11.611345 4.929230 0.893594 14.651603 -18.801542 3.684043 -0.002920 -59.978855 -45.737915 23.938381 -124.031822 0.465062 6.367304 19.455080 19.092648 6.587895 26.320963 2.777474 -0.002395 10.949284 0.518452 -53.728699 46.206917 -2.921664 34.340130 12.446194 26.316971 5.595043 -49.716961 -0.876553 -13.184850 37.400547 -0.820209 -2.942415 22.469997 -35.475132 1.003830 12.879060 -4.209107 -25.017149 57.804554 -0.369240 3.776429 -29.048235 -16.841928 2.814718 
